<?xml version="1.0" encoding="UTF-8" standalone="no"?>
<svg
   width="24"
   height="24"
   viewBox="0 0 24 24"
   fill="none"
   stroke="currentColor"
   stroke-width="2"
   stroke-linecap="round"
   stroke-linejoin="round"
   class="lucide lucide-component-icon lucide-component"
   version="1.1"
   id="svg4"
   sodipodi:docname="component.svg"
   inkscape:version="1.4.2 (ebf0e940, 2025-05-08)"
   inkscape:export-filename="component.png"
   inkscape:export-xdpi="96"
   inkscape:export-ydpi="96"
   xmlns:inkscape="http://www.inkscape.org/namespaces/inkscape"
   xmlns:sodipodi="http://sodipodi.sourceforge.net/DTD/sodipodi-0.dtd"
   xmlns="http://www.w3.org/2000/svg"
   xmlns:svg="http://www.w3.org/2000/svg">
  <defs
     id="defs4" />
  <sodipodi:namedview
     id="namedview4"
     pagecolor="#ffffff"
     bordercolor="#000000"
     borderopacity="0.25"
     inkscape:showpageshadow="2"
     inkscape:pageopacity="0.0"
     inkscape:pagecheckerboard="0"
     inkscape:deskcolor="#d1d1d1"
     inkscape:zoom="8.6666667"
     inkscape:cx="11.884615"
     inkscape:cy="11.826923"
     inkscape:window-width="1176"
     inkscape:window-height="760"
     inkscape:window-x="0"
     inkscape:window-y="38"
     inkscape:window-maximized="0"
     inkscape:current-layer="svg4" />
  <path
     d="M15.536 11.293a1 1 0 0 0 0 1.414l2.376 2.377a1 1 0 0 0 1.414 0l2.377-2.377a1 1 0 0 0 0-1.414l-2.377-2.377a1 1 0 0 0-1.414 0z"
     id="path1"
     style="stroke:#5a5a46;stroke-opacity:1" />
  <path
     d="M2.297 11.293a1 1 0 0 0 0 1.414l2.377 2.377a1 1 0 0 0 1.414 0l2.377-2.377a1 1 0 0 0 0-1.414L6.088 8.916a1 1 0 0 0-1.414 0z"
     id="path2"
     style="stroke:#5a5a46;stroke-opacity:1" />
  <path
     d="M8.916 17.912a1 1 0 0 0 0 1.415l2.377 2.376a1 1 0 0 0 1.414 0l2.377-2.376a1 1 0 0 0 0-1.415l-2.377-2.376a1 1 0 0 0-1.414 0z"
     id="path3"
     style="stroke:#5a5a46;stroke-opacity:1" />
  <path
     d="M8.916 4.674a1 1 0 0 0 0 1.414l2.377 2.376a1 1 0 0 0 1.414 0l2.377-2.376a1 1 0 0 0 0-1.414l-2.377-2.377a1 1 0 0 0-1.414 0z"
     id="path4"
     style="stroke:#5a5a46;stroke-opacity:1" />
</svg>
